<svg width="56" height="56" viewBox="0 0 56 56" fill="none" xmlns="http://www.w3.org/2000/svg">
<circle cx="28" cy="28" r="28" fill="#303757"/>
<path d="M22.0134 15.7016C21.6489 15.6449 21.6334 15.6383 21.805 15.6119C22.1338 15.5612 22.9102 15.6303 23.4452 15.7576C24.6942 16.055 25.8308 16.8168 27.0439 18.1696L27.3662 18.529L27.8273 18.4548C29.7697 18.1421 31.7456 18.3906 33.3984 19.1553C33.853 19.3656 34.5699 19.7844 34.6594 19.8921C34.688 19.9263 34.7404 20.1471 34.7759 20.3827C34.8986 21.1977 34.8372 21.8224 34.5883 22.289C34.4529 22.5429 34.4453 22.6234 34.5364 22.8407C34.6091 23.0141 34.8117 23.1424 35.0124 23.1422C35.4231 23.1416 35.8652 22.4766 36.07 21.5514L36.1514 21.1839L36.3125 21.3667C37.1967 22.3699 37.8911 23.7381 38.0103 24.712L38.0414 24.9659L37.8928 24.7351C37.637 24.3379 37.3801 24.0674 37.051 23.8494C36.4578 23.4563 35.8306 23.3225 34.1696 23.2348C32.6694 23.1556 31.8203 23.0273 30.9784 22.7523C29.546 22.2846 28.8239 21.6616 27.1224 19.4257C26.3666 18.4326 25.8995 17.8831 25.4348 17.4406C24.379 16.4352 23.3415 15.9079 22.0134 15.7016Z" fill="white"/>
<path d="M34.997 17.9191C35.0348 17.2536 35.1249 16.8146 35.3061 16.4138C35.3778 16.2551 35.445 16.1252 35.4553 16.1252C35.4657 16.1252 35.4346 16.2424 35.3861 16.3855C35.2543 16.7746 35.2327 17.3066 35.3234 17.9257C35.4386 18.7112 35.5041 18.8246 36.333 19.6731C36.7219 20.0711 37.1741 20.5731 37.338 20.7886L37.6361 21.1804L37.338 20.9004C36.9735 20.5579 36.1351 19.8901 35.9499 19.7946C35.8258 19.7306 35.8073 19.7316 35.7307 19.808C35.6601 19.8784 35.6452 19.9841 35.6354 20.4839C35.6202 21.2628 35.5142 21.7628 35.2583 22.2627C35.12 22.5331 35.0981 22.4754 35.2234 22.1702C35.3169 21.9424 35.3263 21.8422 35.3257 21.0881C35.3242 19.573 35.1446 19.2087 34.0914 18.5847C33.8246 18.4267 33.3849 18.1987 33.1145 18.0781C32.844 17.9576 32.6291 17.8525 32.6369 17.8447C32.6668 17.8149 33.6939 18.1152 34.1073 18.2744C34.7222 18.5114 34.8238 18.5421 34.8985 18.5135C34.9485 18.4944 34.9727 18.3483 34.997 17.9191Z" fill="white"/>
<path d="M22.7218 20.5109C21.9816 19.4904 21.5237 17.9255 21.6228 16.7558L21.6535 16.3938L21.8219 16.4246C22.1384 16.4824 22.6838 16.6858 22.9393 16.8412C23.6403 17.2675 23.9437 17.8289 24.2525 19.2705C24.3429 19.6927 24.4616 20.1705 24.5162 20.3323C24.6041 20.5927 24.9362 21.2009 25.2062 21.5959C25.4007 21.8803 25.2715 22.0151 24.8416 21.9762C24.185 21.9169 23.2956 21.3021 22.7218 20.5109Z" fill="white"/>
<path d="M34.0991 28.1068C30.6401 26.7119 29.4219 25.5011 29.4219 23.4582C29.4219 23.1576 29.4322 22.9116 29.4448 22.9116C29.4574 22.9116 29.5912 23.0109 29.7422 23.1321C30.4436 23.6956 31.2291 23.9362 33.4035 24.2539C34.683 24.4409 35.403 24.5919 36.0672 24.8126C38.1784 25.5138 39.4847 26.9369 39.7961 28.8753C39.8866 29.4386 39.8335 30.4948 39.6868 31.0514C39.571 31.4911 39.2174 32.2836 39.1237 32.314C39.0976 32.3224 39.0722 32.2227 39.0655 32.0869C39.0299 31.3591 38.6627 30.6504 38.046 30.1196C37.3447 29.5161 36.4026 29.0356 34.0991 28.1068Z" fill="white"/>
<path d="M31.6702 28.686C31.6268 28.4278 31.5517 28.0979 31.5031 27.953L31.4149 27.6897L31.5788 27.874C31.8056 28.129 31.9849 28.4554 32.1369 28.89C32.2528 29.2217 32.2659 29.3204 32.265 29.8595C32.2641 30.3887 32.2496 30.4997 32.1425 30.7982C31.9737 31.2691 31.7641 31.603 31.4125 31.9614C30.7807 32.6054 29.9683 32.962 28.7961 33.1099C28.5923 33.1356 27.9984 33.1789 27.4763 33.2061C26.1604 33.2746 25.2944 33.4162 24.5162 33.6899C24.4043 33.7293 24.3044 33.7532 24.2943 33.743C24.2628 33.7117 24.7927 33.3953 25.2303 33.1842C25.8473 32.8865 26.4615 32.724 27.8378 32.4945C28.5177 32.381 29.2198 32.2435 29.3981 32.1887C31.0817 31.6717 31.9471 30.3375 31.6702 28.686Z" fill="white"/>
<path d="M33.2551 31.5066C32.7956 30.5171 32.69 29.5618 32.9418 28.6708C32.9687 28.5756 33.012 28.4977 33.0381 28.4977C33.0641 28.4977 33.1726 28.5564 33.2791 28.6282C33.4908 28.771 33.9156 29.0114 35.0472 29.6294C36.4592 30.4004 37.2643 30.9975 37.8118 31.6796C38.2912 32.2771 38.5879 32.9574 38.7308 33.7871C38.8116 34.2571 38.7642 35.3879 38.6439 35.8612C38.2642 37.3534 37.3818 38.5254 36.1233 39.2094C35.9389 39.3096 35.7734 39.3919 35.7555 39.3922C35.7376 39.3926 35.8047 39.2215 35.9048 39.012C36.3282 38.1256 36.3763 37.2634 36.0563 36.3037C35.8603 35.7161 35.4607 34.9991 34.6539 33.7873C33.7159 32.3784 33.4859 32.0034 33.2551 31.5066Z" fill="white"/>
<path d="M20.265 36.8453C21.5486 35.7598 23.1457 34.9886 24.6005 34.7519C25.2275 34.6499 26.2719 34.6904 26.8525 34.8392C27.7832 35.0778 28.6156 35.612 29.0486 36.2486C29.4717 36.8707 29.6532 37.4128 29.8423 38.6191C29.9168 39.0949 29.9979 39.5727 30.0224 39.6809C30.1643 40.306 30.4406 40.8057 30.7828 41.0566C31.3264 41.4551 32.2625 41.4799 33.1834 41.1202C33.3397 41.0591 33.4753 41.0169 33.4849 41.0264C33.5183 41.0596 33.0546 41.3706 32.7274 41.5342C32.2873 41.7544 31.9373 41.8396 31.4722 41.8396C30.6288 41.8396 29.9286 41.4098 29.3443 40.5336C29.2294 40.3612 28.9709 39.8447 28.7701 39.3859C28.1532 37.9767 27.8486 37.5474 27.1323 37.0776C26.509 36.6688 25.7051 36.5956 25.1004 36.8926C24.306 37.2826 24.0843 38.2994 24.6533 38.9438C24.8794 39.1998 25.3011 39.4207 25.6459 39.4636C26.291 39.544 26.8454 39.0525 26.8454 38.4002C26.8454 37.9766 26.6828 37.7349 26.2736 37.55C25.7148 37.2974 25.1141 37.5926 25.117 38.1185C25.1182 38.3427 25.2157 38.4835 25.4401 38.5852C25.584 38.6504 25.5874 38.6556 25.47 38.6312C24.9572 38.5247 24.8371 37.9056 25.2494 37.4945C25.7443 37.0011 26.7679 37.2188 27.1194 37.8924C27.2671 38.1753 27.2843 38.7387 27.1555 39.0789C26.8673 39.8404 26.0272 40.2409 25.1749 40.0229C24.5947 39.8746 24.3584 39.7139 23.6589 38.9922C22.4432 37.738 21.9712 37.4949 20.2187 37.2209L19.8828 37.1684L20.265 36.8453Z" fill="white"/>
<path fill-rule="evenodd" clip-rule="evenodd" d="M11.0979 8.75019C15.1577 13.6852 21.4166 21.3688 21.7273 21.799C21.9839 22.1542 21.8873 22.4735 21.4478 22.7238C21.2034 22.8629 20.7009 23.0039 20.4493 23.0039C20.1647 23.0039 19.8442 22.8667 19.6107 22.6449C19.4456 22.4881 18.7797 21.4921 17.2423 19.1029C16.0659 17.2747 15.0815 15.7582 15.0546 15.7328C14.9925 15.6741 14.9936 15.6761 17.1223 19.4909C18.459 21.8863 18.9102 22.7332 18.9102 22.8464C18.9102 23.0768 18.8475 23.1979 18.5638 23.5149C18.0908 24.0434 17.8793 24.6372 17.7267 25.8662C17.5555 27.2439 17.0744 28.2171 15.741 29.8826C14.9605 30.8576 14.8327 31.0363 14.6358 31.4293C14.3877 31.9241 14.3195 32.2013 14.2918 32.8262C14.2626 33.4869 14.3195 33.9137 14.5211 34.5454C14.6975 35.0984 14.8817 35.4636 15.3525 36.194C15.7588 36.8242 15.9928 37.2927 15.9928 37.4759C15.9928 37.6217 16.0206 37.6219 16.6502 37.4795C18.1569 37.1387 19.3804 36.5393 20.0686 35.8048C20.4944 35.3502 20.5944 35.0991 20.5976 34.4761C20.5997 34.0686 20.5854 33.9833 20.4755 33.7489C20.2964 33.3673 19.9705 33.0501 19.2521 32.5583C18.3109 31.9138 17.9089 31.395 17.7978 30.6815C17.7067 30.0961 17.8124 29.683 18.3331 28.59C18.8721 27.4586 19.0056 26.9765 19.096 25.8361C19.1544 25.0993 19.2352 24.8088 19.4465 24.5756C19.6669 24.3323 19.8654 24.25 20.4109 24.1753C21.3003 24.0536 21.8666 23.8232 22.3321 23.3936C22.7359 23.0209 22.9049 22.6617 22.9308 22.1211L22.9505 21.7114L22.7248 21.4479C21.9076 20.4935 10.5506 8 10.5003 8C10.4896 8 10.7585 8.33761 11.0979 8.75019ZM16.4515 33.5737C16.6363 33.2461 16.5381 32.8247 16.229 32.6189C15.937 32.4244 15.4833 32.516 15.4833 32.7694C15.4833 32.8468 15.5261 32.9031 15.6223 32.9527C15.7843 33.0362 15.7961 33.1301 15.6686 33.322C15.5395 33.5164 15.5499 33.6873 15.698 33.8034C15.9367 33.9906 16.2745 33.8876 16.4515 33.5737Z" fill="white"/>
<path fill-rule="evenodd" clip-rule="evenodd" d="M23.5109 24.3902C23.0934 24.5186 22.6875 24.9618 22.5619 25.4266C22.4852 25.7101 22.5287 26.2074 22.6435 26.3609C22.829 26.609 23.0084 26.6744 23.494 26.6709C24.4448 26.6643 25.2714 26.2559 25.3675 25.7452C25.4463 25.3267 25.0832 24.7467 24.5832 24.4921C24.3252 24.3607 23.7764 24.3086 23.5109 24.3902ZM24.6224 25.2607C24.769 25.0521 24.7049 24.8265 24.4555 24.674C23.9807 24.3836 23.2625 24.6239 23.2625 25.0732C23.2625 25.2969 23.6369 25.5409 23.9803 25.5409C24.2087 25.5409 24.5214 25.4045 24.6224 25.2607Z" fill="white"/>
</svg>
